<svg xmlns="http://www.w3.org/2000/svg" viewBox="0 0 40 40">
  <defs>
    <linearGradient id="logo-g" x1="0%" y1="0%" x2="100%" y2="100%">
      <stop offset="0%" stop-color="#1a6b4e"/>
      <stop offset="60%" stop-color="#6ec9a8"/>
      <stop offset="100%" stop-color="#93c5fd"/>
    </linearGradient>
    <mask id="m">
      <rect width="40" height="40" rx="9" fill="white"/>
      <g fill="black" transform="translate(3.7, 4.5)">
        <path d="M8.57 31Q6.94 31 5.60 30.48Q4.26 29.96 3.28 28.97Q2.30 27.98 1.74 26.55Q1.18 25.12 1.18 23.33Q1.18 21.06 2.00 19.49Q2.83 17.92 4.28 16.99Q5.74 16.05 7.64 15.77Q9.18 15.49 9.84 14.90Q10.50 14.31 10.50 13.30Q10.50 12.46 10.00 11.90Q9.49 11.34 8.57 11.34Q7.64 11.34 7.15 11.88Q6.66 12.41 6.66 13.30Q6.66 13.50 6.71 13.71Q6.75 13.92 6.78 14.14L2.83 14.14Q2.74 13.78 2.70 13.44Q2.66 13.11 2.66 12.80Q2.66 11.46 3.39 10.48Q4.12 9.50 5.45 8.96Q6.78 8.43 8.57 8.43Q10.44 8.43 11.77 9.03Q13.10 9.64 13.82 10.66Q14.53 11.68 14.53 12.91Q14.53 14.09 13.93 15.08Q13.33 16.08 11.82 16.61L11.82 16.69Q13.27 17.22 14.20 18.19Q15.12 19.16 15.57 20.46Q16.02 21.76 16.02 23.33Q16.02 25.12 15.50 26.55Q14.98 27.98 14.01 28.97Q13.05 29.96 11.68 30.48Q10.30 31 8.57 31ZM8.62 27.78Q9.72 27.78 10.40 27.23Q11.09 26.69 11.40 25.68Q11.70 24.67 11.70 23.33Q11.70 21.96 11.38 20.98Q11.06 20.00 10.39 19.46Q9.72 18.93 8.60 18.93Q6.97 18.93 6.23 20.11Q5.49 21.28 5.49 23.33Q5.49 24.67 5.81 25.68Q6.13 26.69 6.82 27.23Q7.50 27.78 8.62 27.78ZM25.34 31Q23.13 31 21.53 30.17Q19.94 29.35 19.08 27.96Q18.23 26.58 18.23 24.87Q18.23 24.11 18.35 23.47Q18.48 22.82 18.68 22.32L22.74 22.32Q22.62 22.77 22.54 23.31Q22.46 23.86 22.46 24.36Q22.46 25.20 22.76 25.99Q23.07 26.77 23.72 27.28Q24.36 27.78 25.34 27.78Q26.40 27.78 27.05 27.26Q27.69 26.74 27.99 25.88Q28.28 25.01 28.28 23.94Q28.28 22.74 27.90 21.89Q27.52 21.03 26.82 20.56Q26.12 20.08 25.12 20.08L24.00 20.08L24.00 16.89L25.12 16.89Q26.12 16.89 26.70 16.50Q27.27 16.10 27.54 15.49Q27.80 14.87 27.80 14.23Q27.80 13.50 27.52 12.93Q27.24 12.35 26.68 12.00Q26.12 11.65 25.34 11.65L25.34 8.43Q27.41 8.43 28.91 9.12Q30.41 9.80 31.22 10.99Q32.03 12.18 32.03 13.64Q32.03 15.54 30.95 16.73Q29.88 17.92 28.08 18.34L28.08 18.43Q29.29 18.65 30.31 19.34Q31.33 20.02 31.96 21.23Q32.59 22.43 32.59 24.20Q32.59 26.24 31.71 27.78Q30.83 29.32 29.20 30.16Q27.58 31 25.34 31Z"/>
      </g>
    </mask>
  </defs>
  <rect width="40" height="40" rx="9" fill="url(#logo-g)" mask="url(#m)"/>
</svg>
