<svg xmlns="http://www.w3.org/2000/svg" viewBox="0 0 16 16">
  <defs>
    <linearGradient id="sparkle-g" x1="0%" y1="0%" x2="100%" y2="100%">
      <stop offset="0%" stop-color="#1a6b4e"/>
      <stop offset="60%" stop-color="#6ec9a8"/>
      <stop offset="100%" stop-color="#93c5fd"/>
    </linearGradient>
  </defs>
  <path d="M7.53 1.282a.5.5 0 01.94 0l.478 1.306a7.492 7.492 0 004.464 4.464l1.305.478a.5.5 0 010 .94l-1.305.478a7.492 7.492 0 00-4.464 4.464l-.478 1.305a.5.5 0 01-.94 0l-.478-1.305a7.492 7.492 0 00-4.464-4.464L1.282 8.47a.5.5 0 010-.94l1.306-.478a7.492 7.492 0 004.464-4.464l.478-1.306z" fill="url(#sparkle-g)"/>
</svg>
