<svg xmlns="http://www.w3.org/2000/svg" viewBox="0 0 24 24" fill="none" stroke-width="2" stroke-linecap="round" stroke-linejoin="round">
  <defs>
    <linearGradient id="fp-g" x1="0%" y1="0%" x2="100%" y2="100%">
      <stop offset="0%" stop-color="#1a6b4e"/>
      <stop offset="60%" stop-color="#6ec9a8"/>
      <stop offset="100%" stop-color="#93c5fd"/>
    </linearGradient>
  </defs>
  <g transform="translate(12,12) scale(1.1) translate(-12,-12)">
    <path d="M18.9 7a8 8 0 0 1 1.1 5v1a6 6 0 0 0 .8 3" stroke="url(#fp-g)"/>
    <path d="M8 11a4 4 0 0 1 8 0v1a10 10 0 0 0 2 6" stroke="url(#fp-g)"/>
    <path d="M12 11v2a14 14 0 0 0 2.5 8" stroke="url(#fp-g)"/>
    <path d="M8 15a18 18 0 0 0 1.8 6" stroke="url(#fp-g)"/>
    <path d="M4.9 19a22 22 0 0 1 -.9 -7v-1a8 8 0 0 1 12 -6.95" stroke="url(#fp-g)"/>
  </g>
</svg>
